<svg width="15" height="15" viewBox="0 0 15 15" fill="none" xmlns="http://www.w3.org/2000/svg">
<circle cx="7.5" cy="7.5" r="7.5" fill="#DB830F"/>
<path d="M7.70508 7.34863V9.39941C7.70508 9.49707 7.68555 9.56706 7.64648 9.60938C7.60742 9.65169 7.55697 9.67285 7.49512 9.67285C7.43652 9.67285 7.3877 9.65169 7.34863 9.60938C7.30957 9.56706 7.29004 9.49707 7.29004 9.39941V7.34863H5.47363C5.37598 7.34863 5.30599 7.33073 5.26367 7.29492C5.22135 7.25586 5.2002 7.2054 5.2002 7.14355C5.2002 7.08171 5.22135 7.03288 5.26367 6.99707C5.30599 6.95801 5.37598 6.93848 5.47363 6.93848H7.29004V4.89746C7.29004 4.7998 7.30957 4.72982 7.34863 4.6875C7.3877 4.64518 7.43815 4.62402 7.5 4.62402C7.55859 4.62402 7.60742 4.64518 7.64648 4.6875C7.68555 4.72982 7.70508 4.7998 7.70508 4.89746V6.93848H9.52148C9.61914 6.93848 9.68913 6.95801 9.73145 6.99707C9.77376 7.03288 9.79492 7.08171 9.79492 7.14355C9.79492 7.2054 9.77376 7.25586 9.73145 7.29492C9.68913 7.33073 9.61914 7.34863 9.52148 7.34863H7.70508Z" fill="white"/>
</svg>
