<svg id="Layer_1" data-name="Layer 1" xmlns="http://www.w3.org/2000/svg" viewBox="0 0 2000 2000"><defs><style>.cls-1{fill:none;}</style></defs><rect class="cls-1" width="2000" height="2000"/><path d="M1000,1773.17H420.92c-22.68,0-42-15.87-46.12-37.42L191.48,1052H151a47.27,47.27,0,0,1-47.25-47.25v-3.4L100,810.81a47,47,0,0,1,46.49-47.63l229.82-.38L671.9,250.63a46.66,46.66,0,0,1,64.26-17.39,47.32,47.32,0,0,1,17.39,64.26L484.8,762.8l515.2-.37,534.48.37L1266.11,297.5a46.66,46.66,0,0,1,17.38-64.26c22.3-13.23,51-5.29,63.88,17.39L1643,762.8l210.54.38A47,47,0,0,1,1900,810.81l-3.77,190.51v3.4A47.27,47.27,0,0,1,1849,1052h-40.45L1625.2,1735.75a47,47,0,0,1-46.12,37.42Zm697.39-916.25a47.12,47.12,0,0,1-82.78,45l-25.7-45L1000,856.55l-569.25.37-26.08,45a47.12,47.12,0,0,1-82.78-45H195.26l1.89,100.55h1605.7l1.89-100.55ZM952.75,1678.68l-.38-153.09H416l41.21,153.09Zm-.38-247.59V1284.81h-601l39.31,146.28Zm0-240.78V1052H714.62l-425.62.38,37,138ZM1046.49,1052v138.34h627.09l37-138-426.37-.38Zm0,232.84v146.28h562.83l38.93-146.28Zm0,240.78.38,153.09h495.92L1584,1525.59Z"/></svg>