<svg id="Layer_1" data-name="Layer 1" xmlns="http://www.w3.org/2000/svg" viewBox="0 0 1800 1800"><defs><style>.cls-1{fill:none;}</style></defs><path d="M1000,100c-497.08,0-900,402.92-900,900s402.92,900,900,900,900-402.92,900-900S1497.08,100,1000,100Zm575.79,1475.79C1428.29,1723.2,1225,1814.27,1000,1814.28s-428.29-91.08-575.8-238.49S185.74,1225,185.71,1000,276.79,571.71,424.2,424.2,775,185.74,1000,185.71s428.29,91.08,575.79,238.49S1814.27,775,1814.28,1000,1723.2,1428.29,1575.79,1575.79ZM1000,904.89c121.66-.22,220.08-98.65,220.3-220.32A220.58,220.58,0,0,0,1000,464.29c-121.66.22-220.08,98.62-220.29,220.28A220.59,220.59,0,0,0,1000,904.89Zm124.18,57.3H875.81a294.15,294.15,0,0,0-294.19,294.18v204.37c117.47,47.11,262,75,418.37,75s300.93-27.86,418.39-75V1256.37a294.17,294.17,0,0,0-294.21-294.18Z" transform="translate(-100 -100)"/><rect class="cls-1" width="1800" height="1800"/></svg>